<svg width="10" height="20" viewBox="0 0 27 40" fill="#1f1f1f" xmlns="http://www.w3.org/2000/svg">
<path d="M23.6976 13.9438L6.42068 0.830755C5.71544 0.298661 4.76144 0 3.76704 0C2.77263 0 1.81863 0.298661 1.11339 0.830755C0.760597 1.09634 0.480576 1.41231 0.289481 1.76045C0.0983861 2.10858 0 2.48199 0 2.85913C0 3.23627 0.0983861 3.60968 0.289481 3.95782C0.480576 4.30595 0.760597 4.62192 1.11339 4.88751L18.4279 17.972C18.7807 18.2375 19.0608 18.5535 19.2519 18.9016C19.4429 19.2498 19.5413 19.6232 19.5413 20.0003C19.5413 20.3775 19.4429 20.7509 19.2519 21.099C19.0608 21.4471 18.7807 21.7631 18.4279 22.0287L1.11339 35.1132C0.404613 35.6473 0.00444124 36.3733 0.000911774 37.1314C-0.00261769 37.8895 0.390787 38.6177 1.09458 39.1556C1.79837 39.6936 2.75489 39.9973 3.75373 40C4.75257 40.0027 5.7119 39.7041 6.42068 39.1699L23.6976 26.0569C25.8122 24.4499 27 22.2715 27 20.0003C27 17.7291 25.8122 15.5508 23.6976 13.9438Z" fill="white"/>
</svg>
